<svg width="441" height="156" viewBox="0 0 441 156" fill="none" xmlns="http://www.w3.org/2000/svg">
<path d="M216.306 56.4665V68.3337C216.306 73.0694 214.635 77.1087 211.295 80.4516C207.954 83.7388 203.945 85.3823 199.269 85.3823H171.375V104.938H160.267V73.5152C160.267 68.7794 161.938 64.768 165.278 61.4808C168.619 58.138 172.628 56.4665 177.304 56.4665H216.306ZM197.515 75.9387C199.631 75.9387 201.44 75.1866 202.943 73.6823C204.502 72.178 205.282 70.3394 205.282 68.1666V65.9101H179.142C176.97 65.9101 175.133 66.6623 173.63 68.1666C172.126 69.6709 171.375 71.5094 171.375 73.6823V75.9387H197.515Z" fill="#1BF523"/>
<path d="M279.9 56.4665V87.8895C279.9 92.5695 278.23 96.5809 274.889 99.9238C271.549 103.267 267.54 104.938 262.863 104.938H224.697V73.5152C224.697 68.7794 226.368 64.768 229.708 61.4808C233.049 58.138 237.058 56.4665 241.734 56.4665H279.9ZM261.11 95.4945C263.225 95.4945 265.035 94.7424 266.538 93.2381C268.097 91.6781 268.876 89.8395 268.876 87.7223V65.9101H243.488C241.372 65.9101 239.535 66.6623 237.976 68.1666C236.473 69.6709 235.721 71.5094 235.721 73.6823V95.4945H261.11Z" fill="#1BF523"/>
<path d="M288.23 104.938V56.4665H299.254V104.938H288.23Z" fill="#1BF523"/>
<path d="M343.385 56.4665C348.062 56.4665 352.07 58.138 355.411 61.4808C358.751 64.768 360.422 68.7794 360.422 73.5152V104.938H349.398V73.6823C349.398 71.5094 348.618 69.6709 347.06 68.1666C345.556 66.6623 343.747 65.9101 341.631 65.9101H318.665V104.938H307.641V56.4665H343.385Z" fill="#1BF523"/>
<path d="M422.425 56.4665V65.9101H401.128V104.938H390.105V65.9101H368.808V56.4665H422.425Z" fill="#1BF523"/>
<path d="M429.976 104.938V95.4945H441V104.938H429.976Z" fill="#1BF523"/>
<path d="M18.3013 80.4197L0 64.7628V98.354L18.3013 114.011V80.4197Z" fill="#1BF523"/>
<path d="M38.8788 80.4197V114.011L57.1801 98.354V64.7628L38.8788 80.4197Z" fill="#1BF523"/>
<path d="M29.7752 50.4818L0 25.8102V47.7774L27.6416 70.8358V76.3394L72.7785 38.146V97.8796L27.5942 136.026L0 112.682V132.609L15.8358 145.989L15.7884 146.036L27.5468 156L89.2307 103.905V0L29.7752 50.4818Z" fill="#1BF523"/>
</svg>
